<svg width="16" height="16" viewBox="0 0 16 16" fill="none" xmlns="http://www.w3.org/2000/svg">
<g clip-path="url(#clip0_1817_3868)">
<path d="M1.33325 7.99992C1.33325 4.85722 1.33325 3.28587 2.30956 2.30956C3.28587 1.33325 4.85722 1.33325 7.99992 1.33325C11.1426 1.33325 12.714 1.33325 13.6903 2.30956C14.6666 3.28587 14.6666 4.85722 14.6666 7.99992C14.6666 11.1426 14.6666 12.714 13.6903 13.6903C12.714 14.6666 11.1426 14.6666 7.99992 14.6666C4.85722 14.6666 3.28587 14.6666 2.30956 13.6903C1.33325 12.714 1.33325 11.1426 1.33325 7.99992Z" stroke="#2A2826" stroke-width="1.5"/>
<path d="M4.66675 9.33341L6.19534 7.80482C6.45569 7.54447 6.8778 7.54447 7.13815 7.80482L8.19534 8.86201C8.45569 9.12236 8.8778 9.12236 9.13815 8.86201L11.3334 6.66675M11.3334 6.66675V8.33341M11.3334 6.66675H9.66675" stroke="#2A2826" stroke-linecap="round" stroke-linejoin="round"/>
</g>
<defs>
<clipPath id="clip0_1817_3868">
<rect width="16" height="16" fill="white"/>
</clipPath>
</defs>
</svg>
